STARTFONT 2.1
COMMENT Exported by Fony v1.4.7
FONT Untitled
SIZE 57 96 96
FONTBOUNDINGBOX 40 56 0 -5
STARTPROPERTIES 6
COPYRIGHT "Created with Fony 1.4.7"
RESOLUTION_X 96
RESOLUTION_Y 96
FONT_ASCENT 52
FONT_DESCENT 5
DEFAULT_CHAR 0
ENDPROPERTIES
CHARS 15
STARTCHAR 048
ENCODING 48
SWIDTH 2880 0
DWIDTH 40 0
BBX 40 57 0 -5
BITMAP
0000000000
0000000000
0000000000
0000000000
0000000000
00EEEEEE00
00AAAAAA00
00EEEEEE00
0000000000
0EEEEEEEE0
0AAAAAAAA0
0EEEEEEEE0
0000000000
0EE0000EE0
0AA0000AA0
0EE0000EE0
0000000000
0EE0000EE0
0AA0000AA0
0EE0000EE0
0000000000
0EE0000EE0
0AA0000AA0
0EE0000EE0
0000000000
0EE0000EE0
0AA0000AA0
0EE0000EE0
0000000000
0EE0000EE0
0AA0000AA0
0EE0000EE0
0000000000
0EE0000EE0
0AA0000AA0
0EE0000EE0
0000000000
0EE0000EE0
0AA0000AA0
0EE0000EE0
0000000000
0EE0000EE0
0AA0000AA0
0EE0000EE0
0000000000
0EEEEEEEE0
0AAAAAAAA0
0EEEEEEEE0
0000000000
00EEEEEE00
00AAAAAA00
00EEEEEE00
0000000000
0000000000
0000000000
0000000000
0000000000
ENDCHAR
STARTCHAR 049
ENCODING 49
SWIDTH 2880 0
DWIDTH 40 0
BBX 40 57 0 -5
BITMAP
0000000000
0000000000
0000000000
0000000000
0000000000
00EEEE0000
00AAAA0000
00EEEE0000
0000000000
00EEEE0000
00AAAA0000
00EEEE0000
0000000000
0000EE0000
0000AA0000
0000EE0000
0000000000
0000EE0000
0000AA0000
0000EE0000
0000000000
0000EE0000
0000AA0000
0000EE0000
0000000000
0000EE0000
0000AA0000
0000EE0000
0000000000
0000EE0000
0000AA0000
0000EE0000
0000000000
0000EE0000
0000AA0000
0000EE0000
0000000000
0000EE0000
0000AA0000
0000EE0000
0000000000
0000EE0000
0000AA0000
0000EE0000
0000000000
00EEEEEE00
00AAAAAA00
00EEEEEE00
0000000000
00EEEEEE00
00AAAAAA00
00EEEEEE00
0000000000
0000000000
0000000000
0000000000
0000000000
ENDCHAR
STARTCHAR 050
ENCODING 50
SWIDTH 2880 0
DWIDTH 40 0
BBX 40 57 0 -5
BITMAP
0000000000
0000000000
0000000000
0000000000
0000000000
0EEEEEEE00
0AAAAAAA00
0EEEEEEE00
0000000000
0EEEEEEEE0
0AAAAAAAA0
0EEEEEEEE0
0000000000
0000000EE0
0000000AA0
0000000EE0
0000000000
0000000EE0
0000000AA0
0000000EE0
0000000000
0000000EE0
0000000AA0
0000000EE0
0000000000
00EEEEEEE0
00AAAAAAA0
00EEEEEEE0
0000000000
0EEEEEEEE0
0AAAAAAAA0
0EEEEEEEE0
0000000000
0EE0000000
0AA0000000
0EE0000000
0000000000
0EE0000000
0AA0000000
0EE0000000
0000000000
0EE0000000
0AA0000000
0EE0000000
0000000000
0EEEEEEEE0
0AAAAAAAA0
0EEEEEEEE0
0000000000
0EEEEEEEE0
0AAAAAAAA0
0EEEEEEEE0
0000000000
0000000000
0000000000
0000000000
0000000000
ENDCHAR
STARTCHAR 051
ENCODING 51
SWIDTH 2880 0
DWIDTH 40 0
BBX 40 57 0 -5
BITMAP
0000000000
0000000000
0000000000
0000000000
0000000000
0EEEEEEE00
0AAAAAAA00
0EEEEEEE00
0000000000
0EEEEEEEE0
0AAAAAAAA0
0EEEEEEEE0
0000000000
0000000EE0
0000000AA0
0000000EE0
0000000000
0000000EE0
0000000AA0
0000000EE0
0000000000
0000000EE0
0000000AA0
0000000EE0
0000000000
00EEEEEE00
00AAAAAA00
00EEEEEE00
0000000000
00EEEEEE00
00AAAAAA00
00EEEEEE00
0000000000
0000000EE0
0000000AA0
0000000EE0
0000000000
0000000EE0
0000000AA0
0000000EE0
0000000000
0000000EE0
0000000AA0
0000000EE0
0000000000
0EEEEEEEE0
0AAAAAAAA0
0EEEEEEEE0
0000000000
0EEEEEEE00
0AAAAAAA00
0EEEEEEE00
0000000000
0000000000
0000000000
0000000000
0000000000
ENDCHAR
STARTCHAR 052
ENCODING 52
SWIDTH 2880 0
DWIDTH 40 0
BBX 40 57 0 -5
BITMAP
0000000000
0000000000
0000000000
0000000000
0000000000
0EE000EE00
0AA000AA00
0EE000EE00
0000000000
0EE000EE00
0AA000AA00
0EE000EE00
0000000000
0EE000EE00
0AA000AA00
0EE000EE00
0000000000
0EE000EE00
0AA000AA00
0EE000EE00
0000000000
0EE000EE00
0AA000AA00
0EE000EE00
0000000000
0EEEEEEEE0
0AAAAAAAA0
0EEEEEEEE0
0000000000
00EEEEEEE0
00AAAAAAA0
00EEEEEEE0
0000000000
000000EE00
000000AA00
000000EE00
0000000000
000000EE00
000000AA00
000000EE00
0000000000
000000EE00
000000AA00
000000EE00
0000000000
000000EE00
000000AA00
000000EE00
0000000000
000000EE00
000000AA00
000000EE00
0000000000
0000000000
0000000000
0000000000
0000000000
ENDCHAR
STARTCHAR 053
ENCODING 53
SWIDTH 2880 0
DWIDTH 40 0
BBX 40 57 0 -5
BITMAP
0000000000
0000000000
0000000000
0000000000
0000000000
0EEEEEEEE0
0AAAAAAAA0
0EEEEEEEE0
0000000000
0EEEEEEEE0
0AAAAAAAA0
0EEEEEEEE0
0000000000
0EE0000000
0AA0000000
0EE0000000
0000000000
0EE0000000
0AA0000000
0EE0000000
0000000000
0EE0000000
0AA0000000
0EE0000000
0000000000
0EEEEEEE00
0AAAAAAA00
0EEEEEEE00
0000000000
00EEEEEEE0
00AAAAAAA0
00EEEEEEE0
0000000000
0000000EE0
0000000AA0
0000000EE0
0000000000
0000000EE0
0000000AA0
0000000EE0
0000000000
0000000EE0
0000000AA0
0000000EE0
0000000000
0EEEEEEEE0
0AAAAAAAA0
0EEEEEEEE0
0000000000
0EEEEEEE00
0AAAAAAA00
0EEEEEEE00
0000000000
0000000000
0000000000
0000000000
0000000000
ENDCHAR
STARTCHAR 054
ENCODING 54
SWIDTH 2880 0
DWIDTH 40 0
BBX 40 57 0 -5
BITMAP
0000000000
0000000000
0000000000
0000000000
0000000000
00EEEEEEE0
00AAAAAAA0
00EEEEEEE0
0000000000
0EEEEEEEE0
0AAAAAAAA0
0EEEEEEEE0
0000000000
0EE0000000
0AA0000000
0EE0000000
0000000000
0EE0000000
0AA0000000
0EE0000000
0000000000
0EE0000000
0AA0000000
0EE0000000
0000000000
0EEEEEEEE0
0AAAAAAAA0
0EEEEEEEE0
0000000000
0EEEEEEEE0
0AAAAAAAA0
0EEEEEEEE0
0000000000
0EE0000EE0
0AA0000AA0
0EE0000EE0
0000000000
0EE0000EE0
0AA0000AA0
0EE0000EE0
0000000000
0EE0000EE0
0AA0000AA0
0EE0000EE0
0000000000
0EEEEEEEE0
0AAAAAAAA0
0EEEEEEEE0
0000000000
00EEEEEE00
00AAAAAA00
00EEEEEE00
0000000000
0000000000
0000000000
0000000000
0000000000
ENDCHAR
STARTCHAR 055
ENCODING 55
SWIDTH 2880 0
DWIDTH 40 0
BBX 40 57 0 -5
BITMAP
0000000000
0000000000
0000000000
0000000000
0000000000
00EEEEEEE0
00AAAAAAA0
00EEEEEEE0
0000000000
00EEEEEEE0
00AAAAAAA0
00EEEEEEE0
0000000000
0000000EE0
0000000AA0
0000000EE0
0000000000
000000EE00
000000AA00
000000EE00
0000000000
000000EE00
000000AA00
000000EE00
0000000000
00000EE000
00000AA000
00000EE000
0000000000
00000EE000
00000AA000
00000EE000
0000000000
00000EE000
00000AA000
00000EE000
0000000000
0000EE0000
0000AA0000
0000EE0000
0000000000
0000EE0000
0000AA0000
0000EE0000
0000000000
0000EE0000
0000AA0000
0000EE0000
0000000000
0000EE0000
0000AA0000
0000EE0000
0000000000
0000000000
0000000000
0000000000
0000000000
ENDCHAR
STARTCHAR 056
ENCODING 56
SWIDTH 2880 0
DWIDTH 40 0
BBX 40 57 0 -5
BITMAP
0000000000
0000000000
0000000000
0000000000
0000000000
00EEEEEE00
00AAAAAA00
00EEEEEE00
0000000000
0EEEEEEEE0
0AAAAAAAA0
0EEEEEEEE0
0000000000
0EE0000EE0
0AA0000AA0
0EE0000EE0
0000000000
0EE0000EE0
0AA0000AA0
0EE0000EE0
0000000000
0EE0000EE0
0AA0000AA0
0EE0000EE0
0000000000
00EEEEEE00
00AAAAAA00
00EEEEEE00
0000000000
00EEEEEE00
00AAAAAA00
00EEEEEE00
0000000000
0EE0000EE0
0AA0000AA0
0EE0000EE0
0000000000
0EE0000EE0
0AA0000AA0
0EE0000EE0
0000000000
0EE0000EE0
0AA0000AA0
0EE0000EE0
0000000000
0EEEEEEEE0
0AAAAAAAA0
0EEEEEEEE0
0000000000
00EEEEEE00
00AAAAAA00
00EEEEEE00
0000000000
0000000000
0000000000
0000000000
0000000000
ENDCHAR
STARTCHAR 057
ENCODING 57
SWIDTH 2880 0
DWIDTH 40 0
BBX 40 57 0 -5
BITMAP
0000000000
0000000000
0000000000
0000000000
0000000000
00EEEEEE00
00AAAAAA00
00EEEEEE00
0000000000
0EEEEEEEE0
0AAAAAAAA0
0EEEEEEEE0
0000000000
0EE0000EE0
0AA0000AA0
0EE0000EE0
0000000000
0EE0000EE0
0AA0000AA0
0EE0000EE0
0000000000
0EE0000EE0
0AA0000AA0
0EE0000EE0
0000000000
0EEEEEEEE0
0AAAAAAAA0
0EEEEEEEE0
0000000000
00EEEEEEE0
00AAAAAAA0
00EEEEEEE0
0000000000
0000000EE0
0000000AA0
0000000EE0
0000000000
0000000EE0
0000000AA0
0000000EE0
0000000000
0000000EE0
0000000AA0
0000000EE0
0000000000
0EEEEEEEE0
0AAAAAAAA0
0EEEEEEEE0
0000000000
0EEEEEEE00
0AAAAAAA00
0EEEEEEE00
0000000000
0000000000
0000000000
0000000000
0000000000
ENDCHAR
STARTCHAR 058
ENCODING 58
SWIDTH 2880 0
DWIDTH 40 0
BBX 40 57 0 -5
BITMAP
0000000000
0000000000
0000000000
0000000000
0000000000
0000000000
0000000000
0000000000
0000000000
0000000000
0000000000
0000000000
0000000000
0000000000
0000000000
0000000000
0000000000
0000EE0000
0000AA0000
0000EE0000
0000000000
0000EE0000
0000AA0000
0000EE0000
0000000000
0000000000
0000000000
0000000000
0000000000
0000000000
0000000000
0000000000
0000000000
0000EE0000
0000AA0000
0000EE0000
0000000000
0000EE0000
0000AA0000
0000EE0000
0000000000
0000000000
0000000000
0000000000
0000000000
0000000000
0000000000
0000000000
0000000000
0000000000
0000000000
0000000000
0000000000
0000000000
0000000000
0000000000
0000000000
ENDCHAR
STARTCHAR 059
ENCODING 59
SWIDTH 2880 0
DWIDTH 40 0
BBX 40 57 0 -5
BITMAP
0000000000
EEEEEEEEEE
AAAAAAAAAA
EEEEEEEEEE
0000000000
EEEEEEEEEE
AAAAAAAAAA
EEEEEEEEEE
0000000000
EEEEEEEEEE
AAAAAAAAAA
EEEEEEEEEE
0000000000
EEEEEEEEEE
AAAAAAAAAA
EEEEEEEEEE
0000000000
EEEEEEEEEE
AAAAAAAAAA
EEEEEEEEEE
0000000000
EEEEEEEEEE
AAAAAAAAAA
EEEEEEEEEE
0000000000
EEEEEEEEEE
AAAAAAAAAA
EEEEEEEEEE
0000000000
EEEEEEEEEE
AAAAAAAAAA
EEEEEEEEEE
0000000000
EEEEEEEEEE
AAAAAAAAAA
EEEEEEEEEE
0000000000
EEEEEEEEEE
AAAAAAAAAA
EEEEEEEEEE
0000000000
EEEEEEEEEE
AAAAAAAAAA
EEEEEEEEEE
0000000000
EEEEEEEEEE
AAAAAAAAAA
EEEEEEEEEE
0000000000
EEEEEEEEEE
AAAAAAAAAA
EEEEEEEEEE
0000000000
EEEEEEEEEE
AAAAAAAAAA
EEEEEEEEEE
0000000000
ENDCHAR
STARTCHAR 060
ENCODING 60
SWIDTH 2880 0
DWIDTH 40 0
BBX 40 57 0 -5
BITMAP
0000000000
EEEEEEEEEE
AAAAAAAAAA
EEEEEEEEEE
0000000000
EEEEEEEEEE
AAAAAAAAAA
EEEEEEEEEE
0000000000
EE00000000
AA00000000
EE00000000
0000000000
EE00000000
AA00000000
EE00000000
0000000000
EE00000000
AA00000000
EE00000000
0000000000
EE00000000
AA00000000
EE00000000
0000000000
EE00000000
AA00000000
EE00000000
0000000000
EE00000000
AA00000000
EE00000000
0000000000
EE00000000
AA00000000
EE00000000
0000000000
EE00000000
AA00000000
EE00000000
0000000000
EE00000000
AA00000000
EE00000000
0000000000
EE00000000
AA00000000
EE00000000
0000000000
EEEEEEEEEE
AAAAAAAAAA
EEEEEEEEEE
0000000000
EEEEEEEEEE
AAAAAAAAAA
EEEEEEEEEE
0000000000
ENDCHAR
STARTCHAR 061
ENCODING 61
SWIDTH 2880 0
DWIDTH 40 0
BBX 40 57 0 -5
BITMAP
0000000000
EEEEEEEEEE
AAAAAAAAAA
EEEEEEEEEE
0000000000
EEEEEEEEEE
AAAAAAAAAA
EEEEEEEEEE
0000000000
0000000000
0000000000
0000000000
0000000000
0000000000
0000000000
0000000000
0000000000
0000000000
0000000000
0000000000
0000000000
0000000000
0000000000
0000000000
0000000000
0000000000
0000000000
0000000000
0000000000
0000000000
0000000000
0000000000
0000000000
0000000000
0000000000
0000000000
0000000000
0000000000
0000000000
0000000000
0000000000
0000000000
0000000000
0000000000
0000000000
0000000000
0000000000
0000000000
0000000000
EEEEEEEEEE
AAAAAAAAAA
EEEEEEEEEE
0000000000
EEEEEEEEEE
AAAAAAAAAA
EEEEEEEEEE
0000000000
ENDCHAR
STARTCHAR 062
ENCODING 62
SWIDTH 2880 0
DWIDTH 40 0
BBX 40 57 0 -5
BITMAP
0000000000
EEEEEEEEEE
AAAAAAAAAA
EEEEEEEEEE
0000000000
EEEEEEEEEE
AAAAAAAAAA
EEEEEEEEEE
0000000000
00000000EE
00000000AA
00000000EE
0000000000
00000000EE
00000000AA
00000000EE
0000000000
00000000EE
00000000AA
00000000EE
0000000000
00000000EE
00000000AA
00000000EE
0000000000
00000000EE
00000000AA
00000000EE
0000000000
00000000EE
00000000AA
00000000EE
0000000000
00000000EE
00000000AA
00000000EE
0000000000
00000000EE
00000000AA
00000000EE
0000000000
00000000EE
00000000AA
00000000EE
0000000000
00000000EE
00000000AA
00000000EE
0000000000
EEEEEEEEEE
AAAAAAAAAA
EEEEEEEEEE
0000000000
EEEEEEEEEE
AAAAAAAAAA
EEEEEEEEEE
0000000000
ENDCHAR
ENDFONT
