STARTFONT 2.1
COMMENT Exported by Fony v1.4.7
FONT digits96
SIZE 96 96 96
FONTBOUNDINGBOX 72 95 0 -87
STARTPROPERTIES 6
COPYRIGHT "Created with Fony 1.4.7"
RESOLUTION_X 96
RESOLUTION_Y 96
FONT_ASCENT 9
FONT_DESCENT 87
DEFAULT_CHAR 0
ENDPROPERTIES
CHARS 11
STARTCHAR 048
ENCODING 48
SWIDTH 4320 0
DWIDTH 60 0
BBX 60 78 0 -78
BITMAP
0007FFFFFFFE0000
000FFFFFFFFF0000
000FFFFFFFFF0000
000FFFFFFFFF0000
000FFFFFFFFF0000
000FFFFFFFFF0000
01F800000001F800
03F000000000FC00
03F000000000FC00
03F000000000FC00
03F000000000FC00
03F000000000FC00
7E000000000007E0
FC000000000003F0
FC000000000003F0
FC000000000003F0
FC000000000003F0
FC000000000003F0
FC0000FFF00003F0
FC0000AAB00003F0
FC0000D5500003F0
FC0000AAB00003F0
FC0000D5500003F0
FC0000AAB00003F0
FC0000D5500003F0
FC0000AAB00003F0
FC0000D5500003F0
FC0000AAB00003F0
FC0000D5500003F0
FC0000AAB00003F0
FC0000FFF00003F0
FC0000FFF00003F0
FC0000FFF00003F0
FC0000FFF00003F0
FC0000FFF00003F0
FC0000FFF00003F0
FC0000FFF00003F0
FC0000FFF00003F0
FC0000FFF00003F0
FC0000FFF00003F0
FC0000FFF00003F0
FC0000FFF00003F0
FC0000FFF00003F0
FC0000FFF00003F0
FC0000FFF00003F0
FC0000FFF00003F0
FC0000FFF00003F0
FC0000FFF00003F0
FC000000000003F0
FC000000000003F0
FC000000000003F0
FC000000000003F0
FC000000000003F0
FE000000000007F0
FFF000000000FFF0
FEB000000000ABF0
FD5000000000D7F0
FEB000000000ABF0
FD5000000000D7F0
FEB800000001ABF0
FD5FFFFFFFFFD7F0
FEAAAAAAAAAAABF0
FD555555555557F0
FEAAAAAAAAAAABF0
FD555555555557F0
7EAAAAAAAAAAAFE0
03F555555555FC00
03FAAAAAAAAAFC00
03F555555555FC00
03FAAAAAAAAAFC00
03F555555555FC00
01FAAAAAAAABF800
000FFFFFFFFF0000
000FFFFFFFFF0000
000FFFFFFFFF0000
000FFFFFFFFF0000
000FFFFFFFFF0000
0007FFFFFFFE0000
ENDCHAR
STARTCHAR 049
ENCODING 49
SWIDTH 4320 0
DWIDTH 60 0
BBX 36 78 11 -78
BITMAP
0007FFF800
000FFFFC00
000FFFFC00
000FFFFC00
000FFFFC00
000FFFFC00
01F80007E0
03F00003F0
03F00003F0
03F00003F0
03F00003F0
03F00003F0
7E000003F0
FC000003F0
FC000003F0
FC000003F0
FC000003F0
FC000003F0
FC000003F0
FC000003F0
FC000003F0
FC000003F0
FC000003F0
FE000003F0
FFF00003F0
FD500003F0
FEB00003F0
FD500003F0
FEB00003F0
FD500003F0
FEB00003F0
FD500003F0
FEB00003F0
FD500003F0
FEB00003F0
7D500003F0
03F00003F0
03F00003F0
03F00003F0
03F00003F0
03F00003F0
03F00003F0
03F00003F0
03F00003F0
03F00003F0
03F00003F0
03F00003F0
03F00003F0
03F00003F0
03F00003F0
03F00003F0
03F00003F0
03F00003F0
03F00003F0
03F00003F0
03F00003F0
03F00003F0
03F00003F0
03F00003F0
03F80007F0
03FFFFFFF0
03F55557F0
03FAAAABF0
03F55557F0
03FAAAABF0
03F55557F0
03FAAAABF0
03F55557F0
03FAAAABF0
03F55557F0
03FAAAABF0
01F55557E0
000FFFFC00
000FFFFC00
000FFFFC00
000FFFFC00
000FFFFC00
0007FFF800
ENDCHAR
STARTCHAR 050
ENCODING 50
SWIDTH 4320 0
DWIDTH 60 0
BBX 60 78 0 -78
BITMAP
0007FFFFFFFE0000
000FFFFFFFFF0000
000FFFFFFFFF0000
000FFFFFFFFF0000
000FFFFFFFFF0000
000FFFFFFFFF0000
01F800000001F800
03F000000000FC00
03F000000000FC00
03F000000000FC00
03F000000000FC00
03F000000000FC00
7E000000000007E0
FC000000000003F0
FC000000000003F0
FC000000000003F0
FC000000000003F0
FC000000000003F0
FC0000FFF00003F0
FC0000D5500003F0
FC0000AAB00003F0
FC0000D5500003F0
FC0000AAB00003F0
FE0001D7F00003F0
FFFFFFAE000003F0
FD555554000003F0
FEAAAAAC000003F0
FD555554000003F0
FEAAAAAC000003F0
FD557FFC000003F0
FEAAE000000003F0
FD554000000003F0
FEAAC000000003F0
FD554000000003F0
FEAAC000000003F0
7D5FC000000007F0
03F80000003FFFF0
03F00000003557F0
03F00000002AABF0
03F00000003557F0
03F00000002AABF0
03F00000007557F0
7E000003FFEAABF0
FC000003555557F0
FC000002AAAAABF0
FC000003555557F0
FC000002AAAAABF0
FC000003FFFFFFF0
FC000000000007F0
FC000000000003F0
FC000000000003F0
FC000000000003F0
FC000000000003F0
FC000000000003F0
FC000000000003F0
FC000000000003F0
FC000000000003F0
FC000000000003F0
FC000000000003F0
FE000000000007F0
FFFFFFFFFFFFFFF0
FD555555555557F0
FEAAAAAAAAAAABF0
FD555555555557F0
FEAAAAAAAAAAABF0
FD555555555557F0
FEAAAAAAAAAAABF0
FD555555555557F0
FEAAAAAAAAAAABF0
FD555555555557F0
FEAAAAAAAAAAABF0
7D555555555557E0
03FFFFFFFFFFFC00
03FFFFFFFFFFFC00
03FFFFFFFFFFFC00
03FFFFFFFFFFFC00
03FFFFFFFFFFFC00
01FFFFFFFFFFF800
ENDCHAR
STARTCHAR 051
ENCODING 51
SWIDTH 4320 0
DWIDTH 60 0
BBX 60 78 0 -78
BITMAP
0007FFFFFFFE0000
000FFFFFFFFF0000
000FFFFFFFFF0000
000FFFFFFFFF0000
000FFFFFFFFF0000
000FFFFFFFFF0000
01F800000001F800
03F000000000FC00
03F000000000FC00
03F000000000FC00
03F000000000FC00
03F000000000FC00
7E000000000007E0
FC000000000003F0
FC000000000003F0
FC000000000003F0
FC000000000003F0
FC000000000003F0
FC0000FFF00003F0
FC0000D5500003F0
FC0000AAB00003F0
FC0000D5500003F0
FC0000AAB00003F0
FE0001D7F00007F0
FFFFFFAE0000FFF0
FD5555540000D7F0
FEAAAAAC0000ABF0
FD5555540000D7F0
FEAAAAAC0000ABF0
FD5555FC0001D7F0
FEAAAB80003FABF0
FD555500003557F0
FEAAAB00002AABF0
FD555500003557F0
FEAAAB00002AABF0
7D555500003FFFF0
03FFFF00000007F0
03FFFF00000003F0
03FFFF00000003F0
03FFFF00000003F0
03FFFF00000003F0
03FFFF80000003F0
7E0001FFF00003F0
FC0000D5500003F0
FC0000AAB00003F0
FC0000D5500003F0
FC0000AAB00003F0
FC0000FFF00003F0
FC000000000003F0
FC000000000003F0
FC000000000003F0
FC000000000003F0
FC000000000003F0
FE000000000007F0
FFF000000000FFF0
FD5000000000D7F0
FEB000000000ABF0
FD5000000000D7F0
FEB000000000ABF0
FD5800000001D7F0
FEBFFFFFFFFFABF0
FD555555555557F0
FEAAAAAAAAAAABF0
FD555555555557F0
FEAAAAAAAAAAABF0
7D555555555557E0
03FAAAAAAAAAFC00
03F555555555FC00
03FAAAAAAAAAFC00
03F555555555FC00
03FAAAAAAAAAFC00
01F555555555F800
000FFFFFFFFF0000
000FFFFFFFFF0000
000FFFFFFFFF0000
000FFFFFFFFF0000
000FFFFFFFFF0000
0007FFFFFFFE0000
ENDCHAR
STARTCHAR 052
ENCODING 52
SWIDTH 4320 0
DWIDTH 60 0
BBX 60 78 0 -78
BITMAP
01FFFE0007FFF800
03FFFF000FFFFC00
03FFFF000FFFFC00
03FFFF000FFFFC00
03FFFF000FFFFC00
03FFFF000FFFFC00
7E0001FFF80007E0
FC0000FFF00003F0
FC0000FFF00003F0
FC0000FFF00003F0
FC0000FFF00003F0
FC0000FFF00003F0
FC0000FFF00003F0
FC0000FFF00003F0
FC0000FFF00003F0
FC0000FFF00003F0
FC0000FFF00003F0
FC0000FFF00003F0
FC0000FFF00003F0
FC0000FFF00003F0
FC0000FFF00003F0
FC0000FFF00003F0
FC0000FFF00003F0
FC0000FFF00003F0
FC0000FFF00003F0
FC0000FFF00003F0
FC0000FFF00003F0
FC0000FFF00003F0
FC0000FFF00003F0
FC0000FFF00003F0
FC000000000003F0
FC000000000003F0
FC000000000003F0
FC000000000003F0
FE000000000003F0
FFF00000000003F0
FD500000000003F0
FEB00000000003F0
FD500000000003F0
FEB00000000003F0
FD580000000003F0
FEAFFFFFF00003F0
FD555555500003F0
FEAAAAAAB00003F0
FD555555500003F0
FEAAAAAAB00003F0
FD555555500003F0
7EAAAAAAB00003F0
03F55555500003F0
03FAAAAAB00003F0
03F55555500003F0
03FAAAAAB00003F0
03F55555500003F0
01FAAAAAB00003F0
000FFFFFF00003F0
000FFFFFF00003F0
000FFFFFF00003F0
000FFFFFF00003F0
000FFFFFF00003F0
0007FFFFF80007F0
00000003FFFFFFF0
00000003F55557F0
00000003FAAAABF0
00000003F55557F0
00000003FAAAABF0
00000003F55557F0
00000003FAAAABF0
00000003F55557F0
00000003FAAAABF0
00000003F55557F0
00000003FAAAABF0
00000001F55557E0
000000000FFFFC00
000000000FFFFC00
000000000FFFFC00
000000000FFFFC00
000000000FFFFC00
0000000007FFF800
ENDCHAR
STARTCHAR 053
ENCODING 53
SWIDTH 4320 0
DWIDTH 60 0
BBX 60 78 0 -78
BITMAP
01FFFFFFFFFFF800
03FFFFFFFFFFFC00
03FFFFFFFFFFFC00
03FFFFFFFFFFFC00
03FFFFFFFFFFFC00
03FFFFFFFFFFFC00
7E000000000007E0
FC000000000003F0
FC000000000003F0
FC000000000003F0
FC000000000003F0
FC000000000003F0
FC000000000003F0
FC000000000003F0
FC000000000003F0
FC000000000003F0
FC000000000003F0
FC000000000007F0
FC0000FFFFFFFFF0
FC0000D5555557F0
FC0000AAAAAAABF0
FC0000D5555557F0
FC0000AAAAAAABF0
FC0000FFFFFF57F0
FC0000000001ABF0
FC0000000000D7F0
FC0000000000ABF0
FC0000000000D7F0
FC0000000000ABF0
FC0000000000FFF0
FC000000000007F0
FC000000000003F0
FC000000000003F0
FC000000000003F0
FC000000000003F0
FE000000000003F0
FFFFFFFFF00003F0
FD555555500003F0
FEAAAAAAB00003F0
FD555555500003F0
FEAAAAAAB00003F0
FFFFFFD5500003F0
FE0000AAB00003F0
FC0000D5500003F0
FC0000AAB00003F0
FC0000D5500003F0
FC0000AAB00003F0
FC0000FFF00003F0
FC000000000003F0
FC000000000003F0
FC000000000003F0
FC000000000003F0
FC000000000003F0
FE000000000007F0
FFF000000000FFF0
FD5000000000D7F0
FEB000000000ABF0
FD5000000000D7F0
FEB000000000ABF0
FD5800000001D7F0
FEAFFFFFFFFFABF0
FD555555555557F0
FEAAAAAAAAAAABF0
FD555555555557F0
FEAAAAAAAAAAABF0
7D555555555557E0
03FAAAAAAAAAFC00
03F555555555FC00
03FAAAAAAAAAFC00
03F555555555FC00
03FAAAAAAAAAFC00
01F555555555F800
000FFFFFFFFF0000
000FFFFFFFFF0000
000FFFFFFFFF0000
000FFFFFFFFF0000
000FFFFFFFFF0000
0007FFFFFFFE0000
ENDCHAR
STARTCHAR 054
ENCODING 54
SWIDTH 4320 0
DWIDTH 60 0
BBX 60 78 0 -78
BITMAP
0007FFFFFFFE0000
000FFFFFFFFF0000
000FFFFFFFFF0000
000FFFFFFFFF0000
000FFFFFFFFF0000
000FFFFFFFFF0000
01F800000001F800
03F000000000FC00
03F000000000FC00
03F000000000FC00
03F000000000FC00
03F000000000FC00
7E000000000007E0
FC000000000003F0
FC000000000003F0
FC000000000003F0
FC000000000003F0
FC000000000003F0
FC0000FFF00003F0
FC0000D5500003F0
FC0000AAB00003F0
FC0000D5500003F0
FC0000AAB00003F0
FC0000D5580007F0
FC0000AAAFFFFFF0
FC0000D5555557F0
FC0000AAAAAAABF0
FC0000D5555557F0
FC0000AAAAAAABF0
FC0000FFFFFF57F0
FC0000000001ABF0
FC0000000000D7F0
FC0000000000ABF0
FC0000000000D7F0
FC0000000000ABF0
FC0000000000FFF0
FC000000000007F0
FC000000000003F0
FC000000000003F0
FC000000000003F0
FC000000000003F0
FC000000000003F0
FC0000FFF00003F0
FC0000D5500003F0
FC0000AAB00003F0
FC0000D5500003F0
FC0000AAB00003F0
FC0000FFF00003F0
FC000000000003F0
FC000000000003F0
FC000000000003F0
FC000000000003F0
FC000000000003F0
FE000000000007F0
FFF000000000FFF0
FD5000000000D7F0
FEB000000000ABF0
FD5000000000D7F0
FEB000000000ABF0
FD5800000001D7F0
FEAFFFFFFFFFABF0
FD555555555557F0
FEAAAAAAAAAAABF0
FD555555555557F0
FEAAAAAAAAAAABF0
7D555555555557E0
03FAAAAAAAAAFC00
03F555555555FC00
03FAAAAAAAAAFC00
03F555555555FC00
03FAAAAAAAAAFC00
01F555555555F800
000FFFFFFFFF0000
000FFFFFFFFF0000
000FFFFFFFFF0000
000FFFFFFFFF0000
000FFFFFFFFF0000
0007FFFFFFFE0000
ENDCHAR
STARTCHAR 055
ENCODING 55
SWIDTH 4320 0
DWIDTH 60 0
BBX 54 78 3 -78
BITMAP
01FFFFFFFFFE00
03FFFFFFFFFF00
03FFFFFFFFFF00
03FFFFFFFFFF00
03FFFFFFFFFF00
03FFFFFFFFFF00
7E0000000001F8
FC0000000000FC
FC0000000000FC
FC0000000000FC
FC0000000000FC
FC0000000000FC
FC0000000000FC
FC0000000000FC
FC0000000000FC
FC0000000000FC
FC0000000000FC
FE0000000000FC
FFFFFFFC0000FC
FD5555540000FC
FEAAAAAC0000FC
FD5555540000FC
FEAAAAAC0000FC
FD5555540000FC
FEAAAAAC0000FC
FD5555540000FC
FEAAAAAC0000FC
FD5555540000FC
FEAAAAAC0000FC
7F5555FC0001FC
03FFFF80003FFC
03FFFF000035FC
03FFFF00002AFC
03FFFF000035FC
03FFFF00002AFC
01FFFF000035FC
00003F00002AFC
00003F000035FC
00003F00002AFC
00003F000035FC
00003F00002AFC
00003F000075F8
0007E0000FFF00
000FC0000D7F00
000FC0000ABF00
000FC0000D7F00
000FC0000ABF00
000FC0000D7F00
000FC0000ABF00
000FC0000D7F00
000FC0000ABF00
000FC0000D7F00
000FC0000ABF00
000FC0000D7E00
000FC0000FC000
000FC0000FC000
000FC0000FC000
000FC0000FC000
000FC0000FC000
000FE0001FC000
000FFFFFFFC000
000FD5555FC000
000FEAAAAFC000
000FD5555FC000
000FEAAAAFC000
000FD5555FC000
000FEAAAAFC000
000FD5555FC000
000FEAAAAFC000
000FD5555FC000
000FEAAAAFC000
0007D5555F8000
00003FFFF00000
00003FFFF00000
00003FFFF00000
00003FFFF00000
00003FFFF00000
00001FFFE00000
ENDCHAR
STARTCHAR 056
ENCODING 56
SWIDTH 4320 0
DWIDTH 60 0
BBX 60 78 0 -78
BITMAP
0007FFFFFFFE0000
000FFFFFFFFF0000
000FFFFFFFFF0000
000FFFFFFFFF0000
000FFFFFFFFF0000
000FFFFFFFFF0000
01F800000001F800
03F000000000FC00
03F000000000FC00
03F000000000FC00
03F000000000FC00
03F000000000FC00
7E000000000007E0
FC000000000003F0
FC000000000003F0
FC000000000003F0
FC000000000003F0
FC000000000003F0
FC0000FFF00003F0
FC0000D5500003F0
FC0000AAB00003F0
FC0000D5500003F0
FC0000AAB00003F0
FC0000FFF00003F0
FC000000000003F0
FC000000000003F0
FC000000000003F0
FC000000000003F0
FC000000000003F0
FE000000000007F0
FFFFC000003FFFF0
FD554000003557F0
FEAAC000002AABF0
FD554000003557F0
FEAAC000002AABF0
FFFFC000003FFFF0
FE000000000007F0
FC000000000003F0
FC000000000003F0
FC000000000003F0
FC000000000003F0
FC000000000003F0
FC0000FFF00003F0
FC0000D5500003F0
FC0000AAB00003F0
FC0000D5500003F0
FC0000AAB00003F0
FC0000FFF00003F0
FC000000000003F0
FC000000000003F0
FC000000000003F0
FC000000000003F0
FC000000000003F0
FE000000000007F0
FFF000000000FFF0
FD5000000000D7F0
FEB000000000ABF0
FD5000000000D7F0
FEB000000000ABF0
FD5800000001D7F0
FEBFFFFFFFFFABF0
FD555555555557F0
FEAAAAAAAAAAABF0
FD555555555557F0
FEAAAAAAAAAAABF0
7D555555555557E0
03FAAAAAAAAAFC00
03F555555555FC00
03FAAAAAAAAAFC00
03F555555555FC00
03FAAAAAAAAAFC00
01F555555555F800
000FFFFFFFFF0000
000FFFFFFFFF0000
000FFFFFFFFF0000
000FFFFFFFFF0000
000FFFFFFFFF0000
0007FFFFFFFE0000
ENDCHAR
STARTCHAR 057
ENCODING 57
SWIDTH 4320 0
DWIDTH 60 0
BBX 60 78 0 -78
BITMAP
0007FFFFFFFE0000
000FFFFFFFFF0000
000FFFFFFFFF0000
000FFFFFFFFF0000
000FFFFFFFFF0000
000FFFFFFFFF0000
01F800000001F800
03F000000000FC00
03F000000000FC00
03F000000000FC00
03F000000000FC00
03F000000000FC00
7E000000000007E0
FC000000000003F0
FC000000000003F0
FC000000000003F0
FC000000000003F0
FC000000000003F0
FC0000FFF00003F0
FC0000D5500003F0
FC0000AAB00003F0
FC0000D5500003F0
FC0000AAB00003F0
FC0000FF500003F0
FC000006B00003F0
FC000003500003F0
FC000002B00003F0
FC000003500003F0
FC000002B00003F0
FE000003F00003F0
FFF00000000003F0
FD500000000003F0
FEB00000000003F0
FD500000000003F0
FEB00000000003F0
FD580000000003F0
FEBFFF00000003F0
FD555500000003F0
FEAAAB00000003F0
FD555500000003F0
FEAAAB00000003F0
FFFFFF80000003F0
FE0001FFF00003F0
FC0000D5500003F0
FC0000AAB00003F0
FC0000D5500003F0
FC0000AAB00003F0
FC0000FFF00003F0
FC000000000003F0
FC000000000003F0
FC000000000003F0
FC000000000003F0
FC000000000003F0
FE000000000007F0
FFF000000000FFF0
FD5000000000D7F0
FEB000000000ABF0
FD5000000000D7F0
FEB000000000ABF0
FD5800000001D7F0
FEBFFFFFFFFFABF0
FD555555555557F0
FEAAAAAAAAAAABF0
FD555555555557F0
FEAAAAAAAAAAABF0
7D555555555557E0
03FAAAAAAAAAFC00
03F555555555FC00
03FAAAAAAAAAFC00
03F555555555FC00
03FAAAAAAAAAFC00
01F555555555F800
000FFFFFFFFF0000
000FFFFFFFFF0000
000FFFFFFFFF0000
000FFFFFFFFF0000
000FFFFFFFFF0000
0007FFFFFFFE0000
ENDCHAR
STARTCHAR 058
ENCODING 58
SWIDTH 2160 0
DWIDTH 30 0
BBX 30 66 0 -78
BITMAP
01FFFE00
03FFFF00
03FFFF00
03FFFF00
03FFFF00
03FFFF00
7E0001F8
FC0000FC
FC0000FC
FC0000FC
FC0000FC
FC0000FC
FC0000FC
FC0000FC
FC0000FC
FC0000FC
FC0000FC
FE0001FC
FFFFFFFC
FD5555FC
FEAAAAFC
FD5555FC
FEAAAAFC
FD5555FC
FEAAAAFC
FD5555FC
FEAAAAFC
FD5555FC
FEAAAAFC
7D5555F8
03FFFF00
03FFFF00
03FFFF00
03FFFF00
03FFFF00
03FFFF00
7E0001F8
FC0000FC
FC0000FC
FC0000FC
FC0000FC
FC0000FC
FC0000FC
FC0000FC
FC0000FC
FC0000FC
FC0000FC
FE0001FC
FFFFFFFC
FD5555FC
FEAAAAFC
FD5555FC
FEAAAAFC
FD5555FC
FEAAAAFC
FD5555FC
FEAAAAFC
FD5555FC
FEAAAAFC
7D5555F8
03FFFF00
03FFFF00
03FFFF00
03FFFF00
03FFFF00
01FFFE00
ENDCHAR
ENDFONT
