STARTFONT 2.1
COMMENT Exported by Fony v1.4.7
FONT Untitled
SIZE 32 96 96
FONTBOUNDINGBOX 32 31 0 0
STARTPROPERTIES 6
COPYRIGHT "Created with Fony 1.4.7"
RESOLUTION_X 96
RESOLUTION_Y 96
FONT_ASCENT 32
FONT_DESCENT 0
DEFAULT_CHAR 0
ENDPROPERTIES
CHARS 9
STARTCHAR 049
ENCODING 49
SWIDTH 2304 0
DWIDTH 32 0
BBX 23 25 3 3
BITMAP
001000
001000
00EC00
001000
001060
001070
000038
04003C
04003C
0E1C3E
7EE33E
0E80FE
05007E
01007E
0E003C
31803C
4040D8
800104
800002
800002
800002
800002
400004
200008
1FFFF0
ENDCHAR
STARTCHAR 050
ENCODING 50
SWIDTH 2304 0
DWIDTH 32 0
BBX 22 20 4 8
BITMAP
002000
002000
01D800
002000
0020C0
0020E0
000070
080078
080078
1C007C
FF007C
1C00FC
0800FC
0801FC
0803F8
000FF8
01FFF0
00FFE0
007FC0
001F00
ENDCHAR
STARTCHAR 051
ENCODING 51
SWIDTH 2304 0
DWIDTH 32 0
BBX 17 31 7 1
BITMAP
3FFE00
400100
800080
81C080
822080
BA2E80
822080
822080
82A080
82A080
82A080
82A080
BAAE80
82A080
82A080
82A080
82A080
82A080
82A080
BAAE80
82A080
82A080
849080
85D080
849080
822080
81C080
800080
800080
400100
3FFE00
ENDCHAR
STARTCHAR 052
ENCODING 52
SWIDTH 2304 0
DWIDTH 32 0
BBX 28 27 2 2
BITMAP
03F80000
0447F000
0C422FE0
14422110
24422110
44422110
84422110
C4422110
A4422BB0
94477550
8EEAAFE0
8557F000
83F80000
80000000
80007C00
80C18300
803E0000
80007C00
80C18300
803E0000
80007C00
80C18300
803E0000
80000000
80000000
80000000
80000000
ENDCHAR
STARTCHAR 053
ENCODING 53
SWIDTH 2304 0
DWIDTH 32 0
BBX 31 26 0 3
BITMAP
00007000
00018C00
000E0200
00318100
00404100
008020F0
00802108
1F001004
20C01002
40206C02
80008202
80000102
80000102
80000104
80000108
400002F0
20000400
1FFFF800
00000000
05050500
02020200
05050500
00000000
50505000
20202000
50505000
ENDCHAR
STARTCHAR 054
ENCODING 54
SWIDTH 2304 0
DWIDTH 32 0
BBX 31 27 0 2
BITMAP
00007000
00018C00
000E0200
00318100
00404100
008020F0
00802108
1F001004
20C01002
40206C02
80008202
80000102
80000102
80000104
80000108
400002F0
20000400
1FFFF800
00000000
01249000
01249000
02492000
02492000
04924000
04924000
09248000
09248000
ENDCHAR
STARTCHAR 055
ENCODING 55
SWIDTH 2304 0
DWIDTH 32 0
BBX 31 22 0 6
BITMAP
0000F800
007B0600
01860100
02010080
04008080
04008040
08007040
08018DB0
36020208
40040104
80040102
80F80082
81060082
82010362
44000412
2400000C
1C000008
04000008
04000008
02000010
01000020
00FFFFC0
ENDCHAR
STARTCHAR 056
ENCODING 56
SWIDTH 2304 0
DWIDTH 32 0
BBX 28 27 1 3
BITMAP
00020000
01020400
01020400
00820800
00800800
000F8000
003FE000
307FF060
0CFFF980
01FFFC00
01FFFC00
03FFFE00
03E3FE00
7B80FEF0
01007E00
01007E00
0E003C00
31803C00
4040D980
80010460
80000200
80000200
80000200
80000200
40000400
20000800
1FFFF000
ENDCHAR
STARTCHAR 057
ENCODING 57
SWIDTH 2304 0
DWIDTH 32 0
BBX 31 31 0 1
BITMAP
00010000
01010100
01010100
00810200
00810200
00410400
00400400
0007C000
601FF00C
183FF830
067FFCC0
00FFFE00
00FFFE00
01FFFF00
01FFFF00
FDFFFF7E
01FFFF00
01FFFF00
00FFFE00
00FFFE00
067FFCC0
183FF830
601FF00C
0007C000
00400400
00410400
00810200
00810200
01010100
01010100
00010000
ENDCHAR
ENDFONT
